<svg xmlns="http://www.w3.org/2000/svg" width="2560" height="640" xmlns:v="https://vecta.io/nano"><path d="M0 0h2560v640H0z" fill="#fff"/><path d="M0 0v640h2560V0H0m1200 119.047c11.883-1.402 25.561-.688 37.333 1.299 77.36 13.063 79.689 109.233 66 168.987-26.807 117.007-123.045 240.559-254 234.615-12.623-.573-26.845-3.564-38.667-7.847-42.627-15.441-52.061-54.304-42.913-94.768 11.416-50.497 60.616-103.745 114.913-105.313 9.968-.287 25.293 6.409 14.243 18.28-8.081 8.683-27.311 6.645-38.243 11.479-25.509 11.279-45.899 35.435-56.56 60.888-3.419 8.164-5.612 16.529-6.216 25.333-.483 7.053-.709 14.479 1.428 21.333 18.089 58.015 101.356 41.775 140.015 19.952 71.476-40.348 133.091-128.263 142.893-210.619 4.769-40.075.492-83.421-40.227-104.035-33.675-17.048-80.035-3.988-109.333 16.155-7.025 4.831-29.115 28.833-38.428 15.301-9.035-13.127 8.328-26.972 17.095-33.589 27.443-20.712 56.649-33.438 90.667-37.451M540 252c-.773 32.909-49.503 22.667-72 22.667-6.693 0-16.88-1.951-22.147 3.091-5.071 4.855-6.957 13.252-9.5 19.576l-16.729 40C401.055 382.605 381.145 427.371 361.1 472c-6.516 14.507-12.148 32.171-21.536 45.049-4.572 6.272-14.039 8.964-20.7 4.272-5.509-3.88-4.457-11.52-3.372-17.321 2.715-14.516 8.392-28.443 12.208-42.667 11.812-44.019 28.451-86.843 41.044-130.667 3.409-11.864 15.715-40.053 10.652-51.803-2.621-6.083-12.793-4.197-18.063-4.197H308 80v-17.333h220 58.667c6.353 0 17.956 2.212 23.475-1.371 6.835-4.436 5.835-22.031 5.857-29.296.069-21.617-5.323-47.311-25.332-59.155-7.036-4.164-15.095-3.608-22.469-6.636-4.596-1.888-5.037-7.329-2.06-11.023 5.712-7.084 16.524-5.853 24.529-5.853 19.752 0 40.404.692 60-1.715 9.121-1.12 23.629.237 31.856-3.275 7.607-3.248 7.757-13.537 17.479-14.654 12.875-1.478 18.531 12.934 29.337 13.438C541.06 139.649 581.524 132 621.333 132c15.427 0 31.271-.398 46.667-1.453 6.455-.442 15.223-3.285 20.908 1.263 11.388 9.108-10.515 27.785-19.575 28.164-41.173 1.716-82.787.025-124 .025-14.809 0-38.133-4.464-51.98.804-7.355 2.799-8.643 11.335-10.977 17.863-5.919 16.56-12.323 32.957-18.719 49.333-1.843 4.717-9.659 17.159-5.461 21.677S474.431 252 480 252h60m-149.333-90.667c3.104 8.976 9.993 15.767 12.527 25.333 5.44 20.539 3.311 47.328-.527 68 4.924 1.169 11.993 2.675 15.633-2.019 5.515-7.109 7.428-18.964 10.575-27.315 7.721-20.495 16.135-41.505 21.792-62.667l-60-1.333m788 33.745c10.319-1.42 10.931 6.219 8.773 14.255-4.008 14.932-10.109 29.523-15.507 44A4716 4716 0 0 1 1109.493 412c-7.267 17.527-13.304 46.484-36.16 47.927-3.035.192-8.377.593-9.631-3.017-1.563-4.504 2.333-11.385 3.765-15.576 4.441-12.996 9.375-25.915 14.48-38.667l63.195-157.333c6.739-16.456 12.707-47.392 33.524-50.255m724 230.255c17.707-4.108 35.907-17.025 47.6-30.667 6.467-7.549 11.24-17.353 19.08-23.596 7.547-5.989 24.44-10.008 32.52-2.889 6.427 5.669-2.2 15.411-5.747 19.819-11.253 14.015-23.533 32.32-25.547 50.667-1.08 9.879 7.147 21.341 17.427 21.841 7.48.364 18.093-4.731 21.547-11.576 3.907-7.764 3.853-19.104 6.333-27.599 4.507-15.496 12.827-30.993 22.64-43.773 7.04-9.185 22.947-27.116 35.747-15.541 5.68 5.137 4.293 14.132 2.387 20.648-4.747 16.197-15.973 31.544-25.347 45.333-3.4 4.999-16.533 16.137-7.2 21.291 9.747 5.385 27.773-10.567 34.56-16.359 15.6-13.296 33.627-29.891 44.227-47.599 7.613-12.731 9.147-26.78 19.52-38.439 7.933-8.924 37.907-28.644 42.093-5.581 1.52 8.32-20.88 16.504-25.667 24.021-8.64 13.599.627 32.197 6.493 45.332l45.333-26.36 24-17.043L2256 368h53.333H2480v17.333h-166.667-48c-6.987 0-16.067-1.497-22.667 1.143-17.093 6.84-33.013 23.617-49.333 32.955-6.987 3.996-17.173 7.068-21.867 13.975-5.013 7.385-1.147 19.441-3.36 27.928-5.867 22.372-30.173 38.824-53.44 34.161-19.787-3.965-20.48-29.684-9.96-43.495 6.813-8.932 16.613-13.228 24.267-20.907 3.547-3.552 4.827-15.319-1.36-17.484-4.707-1.653-9.787 7.533-12.2 10.391-9.28 10.996-20.16 20.697-31.413 29.613-15.613 12.36-33.8 24.845-54.667 22.209-6.08-.768-10.827-7.497-16.587-7.409-10.867.167-23.6 10.081-35.413 11.336-27.533 2.924-38.667-23.889-38.667-46.416-10.427 4.552-19.627 10.759-30.667 14.16-7.547 2.324-16.733 2.371-23.773 6.02-17.747 9.215-27.267 25.225-49.56 26.429-9.36.505-20.227-2.255-27.88-7.831-4.013-2.929-7.933-11.457-13.507-10.941-5.733.532-12.013 6.495-17.28 8.829-15.507 6.871-40.827 10.477-50.773-7.385-2.907-5.208-3.627-11.588-5.227-17.281-25.627 22.843-73.813 53.093-105.053 21.087-5.733-5.871-7.707-13.807-10.947-21.087h-1.333c-15.64 19.383-56.053 42.343-79.747 24.009-6.493-5.015-7.84-12.9-10.92-20.009h-1.333c-25.307 35.293-92.067 46.311-94.667-10.667-26.413 15.385-51.453 47.816-86.667 40.828-69.948-13.88-22.345-108.413 20-126.069 9.707-4.047 23.133-7.845 33.333-3.709 21.773 8.831 12.627 36.599.827 49.665-9.813 10.871-22.16 18.213-35.493 23.865-6.133 2.6-17.813 4.065-21.291 10.264-5.191 9.251 6.024 23.355 14.624 25.721 7.56 2.079 16.147-1.671 22.667-5.203 20.48-11.107 43.76-30.393 54.693-51.363 8.24-15.824 11.693-34.345 19.267-50.667 12.52-26.943 28.467-51.883 47.48-74.667 14.267-17.092 46.027-50.628 71.893-44.807 27.28 6.136 2.933 49.529-5.147 62.14-20.04 31.255-44.693 57.84-70.853 84-10.693 10.689-24.893 20.127-34.107 32.02-8.88 11.461-9.227 35.887 5 43.661 12.013 6.56 26.76-2.704 35.773-10.595 22.973-20.107 35.92-43.281 50.973-69.087 6.187-10.591 25.307-22.46 37.933-14.243 7.213 4.693-.933 16.024-3.84 20.909-9.88 16.555-22.027 33.479-27.96 52-2.013 6.315-3.867 17.611 4.36 20.471 11.8 4.095 31.827-14.129 39.867-20.851 29.44-24.619 39.8-63.704 76-81.499 12.76-6.275 32.267-11.572 45.28-3.355 19.68 12.425 6.52 47.431-9.28 56.851-4.053 2.413-21.68 6.961-20.707-2.363.84-8.133 11.587-14.424 14.24-22.588 2.133-6.591.307-14.933-8.2-12.431-23.76 6.996-41.413 32.568-48.187 55.097-3.973 13.245-3.707 27.964 9.52 35.9 14.88 8.925 33.707-4.027 45.28-13.233 14.96-11.897 28.467-27.696 38.453-44 12.08-19.757 18.587-42.747 45.6-42.561 11.84.083 11.453 8.756 6.84 17.228-9.747 17.917-21.4 34.5-29.48 53.333-2.907 6.736-7.227 22.905 4.027 24.771 11.053 1.829 29.573-12.176 34.96-20.772 4.667-7.452 4.893-17.487 9.307-25.332 7.147-12.668 18.707-18.663 28.787-28.279 7.293-6.963 12.413-14.812 21.56-19.773 18.853-10.233 47.507-5.459 54.093 17.385 4.747 16.485.267 32.287-4.76 48m-444-54.667c9.947-4.637 16.507-15.18 23.667-23.232 16.467-18.544 31.627-37.921 46.053-58.101 6.547-9.153 15.76-19.151 16.947-30.667-11.133 2.696-20.307 16.013-27.947 24-23.333 24.411-48.053 55.508-58.72 88m-1086.667 4c14.844-19.82 20.463-51.617 29.4-74.667 1.636-4.22 11.275-22.26 3.689-24.331-8.656-2.364-10.451 16.427-11.704 21.664-6.213 25.951-16.432 51.133-21.385 77.333m1220-82.007c19.12-5.061 23.387 10.241 20.933 26.007-2.227 14.276-16.24 29.299-30.267 32.705-13.213 3.207-22.08-6.644-19.093-19.372 3.853-16.431 9.907-34.435 28.427-39.34m208 0c19.12-5.061 23.387 10.241 20.933 26.007-2.227 14.276-16.24 29.299-30.267 32.705-13.213 3.207-22.08-6.644-19.093-19.372 3.853-16.431 9.907-34.435 28.427-39.34m-210.747 24.508c-6.64 1.477-16.467 16.912-5.227 13.883 5.213-1.405 14.88-16.031 5.227-13.883m196.08 12.165c8.8 3.465 15.173-3.747 17.333-12-8.293.455-13.813 4.477-17.333 12m-984 53.333c6.448-1.377 12.181-5.185 18.667-6.316 12.759-2.223 19.193 12.799 14.857 23.649-6.02 15.064-20.527 27.835-28.012 42.667-2.993 5.932-6.719 15.133-1.956 21.029 6.959 8.612 17.813.397 24.444-4.281 18.992-13.4 34.583-33.779 47.727-52.748 3.623-5.229 9.992-22.033 18.744-17.271 13.008 7.08-10.088 33.441-14.971 39.937-16.508 21.965-40.239 49.215-67.5 57.661-32.788 10.16-47.968-17.265-38.308-45.661 4.495-13.212 14.221-22.424 19.641-34.667-6.092 1.805-12.936 1.003-18.647 4.187-9.404 5.241-16.396 17.572-24.021 25.141-15.085 14.973-32.487 28.464-51.999 37.096-7.236 3.201-17.572 4.517-25.333 2.225-5.479-1.617-9.865-7.831-16-6.395-25.007 5.855-54.18 22.856-68.647-11.588-2.788-6.637-2.881-14.355-4.687-21.333-20.404 9.527-44.784 12.905-61.333 27.861-19.295 17.436-59.449 25.372-73.909-2.529-7.269-14.027-3.173-34.233 2.513-47.999 6.541-15.833 19.691-22.263 31.169-33.505 9.131-8.941 16.597-19.452 29.56-23.187 26.981-7.776 47.989 9.573 47.989 36.692 0 11.24-3.632 21.347-6.656 32 15.867-3.681 31.997-13.967 42.161-26.667 7.52-9.396 12.315-23.113 23.177-29.416 10.937-6.348 20.684-3.868 31.995-1.251-.061 17.423-17.447 31.529-25.329 46.667-3.857 7.407-9.207 18.064-8.401 26.667 1.799 19.203 21.633 23.356 34.985 12.52 8.367-6.789 7.748-22.644 10.624-32.52 4.848-16.649 14.113-33.332 25.132-46.667 6.98-8.448 19.756-20.749 32.019-13.296 6.451 3.921 5.344 13.785 3.903 19.963-3.807 16.311-16.169 33.091-25.619 46.615-3.696 5.287-16.332 15.643-7.329 21.455 8.481 5.475 24.473-8.452 30.683-13.253 9.227-7.136 27.833-20.751 31.664-32.149 1.763-5.244-3.011-14.277-3.419-20-.905-12.743 5.431-25.228 13.521-34.647 8.785-10.228 35.424-20.024 41.363-1.348 3.684 11.584-2.155 23.565-4.463 34.661m-20-24c-7.932 6.627-11.887 15.037-12 25.333 8.993-2.548 17.439-16.58 12-25.333m550.667 52c13.907-4.463 26.72-11.912 33.773-25.333 1.84-3.501 6.16-11.435 2.693-14.991-4.587-4.715-11.76 1.24-15.133 4.397-9.413 8.832-19.987 22.741-21.333 35.927m-818.667-37.333c2.724 2.18 5.992 3.88 7.989 6.844 1.315 1.952 2.029 4.181 2.392 6.489 3.584 22.744-25.185 7.071-23.437 25.335 1.035 10.807 20.581 23.109 29.757 14.221 15.619-15.125 15.041-67.38-16.701-52.889m1348 0c2.72 2.18 5.987 3.88 7.987 6.844 1.32 1.952 2.027 4.181 2.4 6.489 3.587 22.748-25.147 7.057-23.44 25.315 1.013 10.928 20.32 22.84 29.533 14.055 16.613-15.837 15.427-64.325-16.48-52.703m-1492 4v4h1.333l-1.333-4m108 50.667c-1.611 6.765-3.035 16.432.989 22.613 7.489 11.504 23.992 9.249 31.011-1.28-12.787-3.865-22.099-9.951-29.333-21.333h-2.667m1380 21.333c-11.92-2.979-20.573-8.927-28-18.667-9.707 6.305-5.227 21.435 4 26.243 8.32 4.331 18.76-.952 24-7.576M2136 452c-6.747 1.343-27.853 16.043-16.747 23.997 11.493 8.229 16.693-17.667 16.747-23.997z" fill="#fd0101"/></svg>